<?xml version="1.0" encoding="utf-8"?>
<!-- Generator: Adobe Adobe Illustrator 29.2.0, SVG Export Plug-In . SVG Version: 6.00 Build 0)  -->
<svg version="1.1" id="Layer_1" xmlns="http://www.w3.org/2000/svg" xmlns:xlink="http://www.w3.org/1999/xlink" x="0px" y="0px"
	 viewBox="0 0 234.04 92.51" style="enable-background:new 0 0 234.04 92.51;" xml:space="preserve">
<style type="text/css">
	.st0{fill:#FFFFFF;}
	.st1{fill:#F9F9F4;}
	.st2{fill:#1D1D1C;}
</style>
<g>
	<g id="oaHHKc_00000065760263633620219870000009360463557689503157_">
		<g>
			<path d="M89.92,1.43c0.08,0.08,0.08,0.23,0.1,0.36c0.02,0.4,0.15,0.63,0.18,0.98c-0.02,0.25-0.12,0.55-0.08,0.78
				c0.14,1.41-0.01,2.76-0.17,4.19c-0.2,4.58-0.74,9.29-0.84,13.85c0.04,0.45-0.19,0.96-0.26,1.39c0.02,0.7-0.02,1.5-0.13,2.22
				c-0.24,1.21-0.05,2.62-0.26,3.79c-0.26,1.14-0.11,2.4-0.21,3.58c-0.11,1.03-0.38,2.47-0.27,3.59c-0.43,1.87-0.26,4.02-0.41,5.83
				c-0.12,0.7-0.1,1.42-0.11,2.12c-0.06,1.37-0.32,2.76-0.17,4.14c-0.14,1.36,0.03,1.5,1.42,1.35c0.69-0.09,1.63-0.07,2.31,0.01
				c0.36-0.02,1.14,0.2,1.26-0.23c-0.06-0.45,0.45-0.82,0.53-1.22c0.27-2.02,0.51-4.22,0.56-6.24c0.16-2.85,0.52-5.48,0.66-8.35
				c0.08-1.56,0.49-3.05,0.48-4.58c-0.03-0.5,0.08-0.91,0.24-1.39c-0.02-1.15,0-2.48,0.22-3.67c0.49-2.56,0.11-5.12,0.55-7.69
				c0.12-2.3,0.35-4.57,0.74-6.78c0.44-2.02,0.1-4.26,0.96-6.17c0.05-1.44,0.67-1.9,2.11-1.53c1.89,0.38,4.55,0.05,6.41,0.3
				c0.72,0.18,1.43,0.04,2.15,0.05c1.56,0.22,3.04,0.32,4.53,0.43c0.78,0,2.04-0.07,2.69-0.06c0.29,0.02,0.42-0.03,0.45,0.18
				c0.04,0.15,0.14,0.53,0.13,0.7c-0.03,0.54,0.08,1.25,0.14,1.76c0.06,0.31-0.02,0.57-0.06,0.91c-0.1,0.9,0.21,1.78,0.05,2.67
				c-0.26,1.64-0.05,3.45-0.15,5.09c-0.03,0.76-0.34,1.61-0.24,2.42c0.12,1.22-0.11,2.81-0.29,3.9c-0.35,2.07-0.1,4.39-0.59,6.36
				c-0.4,2.73-0.68,5.46-1.02,8.19c-0.58,3.4-1.19,6.7-1.51,10.14c-0.03,0.54-0.31,1.14-0.43,1.59c-0.16,0.71-0.15,1.49-0.22,2.23
				c-0.54,3.93-1.36,7.91-1.59,11.85c-0.03,0.34-0.26,0.41-0.5,0.62c-0.29,0.36-0.62,0.69-0.96,1c-0.51,0.41-0.73,1.12-1.36,1.31
				c-0.49,0.5-0.86,1.38-1.47,1.88c-0.83,0.57-1.56,1.73-2.46,2.42c-1.12,0.9-2.12,2.3-3.29,3.24c-0.46,0.23-1.21,0.04-1.74,0.14
				c-1.33,0.23-2.7,0.49-4.05,0.52c-2.5,0.38-5.62-0.23-8.27,0.1c-1.38,0.29-3.04,0.05-4.48,0.28c-0.63,0.16-1.28-0.13-1.94-0.08
				c-1.43,0.1-2.64,0.54-4.15,0.3c-0.26-0.05-0.65,0.01-0.85,0.01c-0.45-0.57-1.2-1.15-1.7-1.73c-0.43-0.55-0.8-0.86-1.22-1.13
				c-0.55-0.44-1.06-1.11-1.58-1.63c-1.49-1.51-3.28-2.69-4.7-4.22c-0.12-0.21-0.01-0.34,0.02-0.63c0.02-0.25,0.02-0.6,0.01-0.87
				c-0.2-1.12,0.21-2.41,0.13-3.61c-0.2-1.14,0.39-2.51,0.27-3.54c-0.06-0.71,0.27-1.42,0.28-2.13c0.02-1,0.13-2.17,0.3-3.15
				c0.07-1.19,0.01-2.15,0.36-3.31c0.1-0.4,0.01-0.66,0.01-1.09c0.07-1.41,0.29-2.85,0.33-4.27c0.36-3.39,0.84-6.46,1.07-9.76
				c0.1-0.93,0.29-1.82,0.2-2.78c0.01-0.31,0.27-0.55,0.31-0.84c0.04-0.34-0.01-0.74-0.01-1.09c0.07-1.22,0.41-2.43,0.31-3.63
				c0.17-0.61,0.33-1.07,0.23-1.69c-0.01-0.8,0.09-1.78,0.19-2.62c0.57-3.53,0.52-6.9,1.23-10.32c0.49-1.52,0.33-3.22,1.03-4.64
				c0.12-0.6,0.6-1.07,1.09-1.4c0.62-0.34,1.21-0.07,1.83,0.05c0.22,0,0.29-0.22,0.57-0.27c0.38-0.06,0.74-0.1,1.1-0.09
				c4.49-0.02,9.27-0.33,13.98-0.4L89.92,1.43z"/>
			<path d="M65.71,2.62c0.12,0,0.23,0.1,0.22,0.22c0,0.08-0.01,0.15-0.01,0.23c-0.03,0.61-0.09,1.22-0.08,1.87
				c0.08,0.64,0.1,1.21,0.06,1.94c-0.1,1.66-0.45,3.47-0.65,4.9c-0.16,2.03-0.03,4.12-0.56,6.14c-0.17,1.56-0.29,3.36-0.78,4.94
				c-0.15,0.99-0.15,2-0.35,2.98c-1.57,8.61-0.84,17.5-1.77,26.11c0.05,1.41-0.11,2.91-0.05,4.31c-0.24,0.89,0,1.79-0.36,2.59
				c-0.14,0.42,0.09,0.76,0.07,1.31c-0.02,0.48-0.11,0.85-0.16,1.37c-0.15,1.36-0.24,2.78-0.28,4.04c-0.07,0.82,0.24,4.1-0.41,4.21
				c-1.19,0.08-2.23,0.21-3.46,0.4c-1.38-0.11-3.25-0.14-4.53,0.02c-1.04,0.09-2.16,0.33-3.22,0.22c-0.65-0.21-1.32,0.25-1.97,0.2
				c-1-0.15-2.56-0.03-3.71,0.16c-1.02,0.17-2.5,0.08-3.74,0.23c-0.34,0.04-0.74,0.25-1.01,0c-0.24-0.45-0.23-1.06-0.05-1.54
				c-0.1-4.09,0.87-8.16,1.21-12.21c0.05-0.62-0.02-0.7-0.6-0.59c-0.21-0.03-0.42-0.1-0.64-0.1c-0.85-0.04-1.7,0.11-2.49-0.26
				c-0.53-0.15-1.27,0.17-1.78-0.16c-0.63-0.36-1.35-0.21-2.09-0.34c-1.54-0.37-3.19-0.3-4.73-0.61c-0.58-0.15-1.02-0.54-1.64-0.36
				c-0.29,0.07-0.87-0.35-0.93,0.18c0.13,1.7-0.53,3.49-0.25,5.18c0.05,0.36-0.03,0.76-0.08,1.1c-0.05,0.41,0.09,0.79-0.03,1.18
				c-0.19,0.94-0.09,2.18-0.14,3.24c-0.03,0.95-0.31,1.87-0.25,2.86c0.12,0.55-0.03,1.1-0.22,1.61c-0.1,0.65,0.11,1.36-0.29,1.94
				c-0.15,0.23-0.24,0.43-0.38,0.57c-0.24,0.12-0.64,0.02-0.9,0.05c-0.42,0.02-0.86,0.11-1.27,0.17c-1.69,0.2-3.8,0.4-5.6,0.65
				c-1.57,0.11-3.2-0.06-4.64,0.17c-1.49,0.01-3.28-0.03-4.68,0.16c-0.81,0.11-1.84-0.12-2.57-0.05c-0.64,0.03-2.1,0.04-2.38-0.21
				c-0.3-0.26,0.02-1.44,0.09-2.06c0.09-0.34,0.31-0.7,0.27-1.09c-0.04-0.39,0.15-0.7,0.15-1.09c-0.01-0.25-0.13-0.48-0.09-0.74
				c0.37-1.61,0.38-3.43,0.65-5.07c0.11-0.62,0.02-1.29,0.17-1.88c0.17-0.34,0.3-0.72,0.25-1.11c-0.01-0.19,0.02-0.36,0.04-0.54
				c0.06-0.32-0.09-0.75,0.07-1.11c0.15-0.35,0.35-0.56,0.37-0.96c0.08-2.91,0.81-5.74,0.87-8.63c0.18-1.85,0.61-3.67,0.62-5.61
				c0.05-0.85,0.07-1.6,0.47-2.37c0.1-0.63,0.04-1.31,0.16-1.95c0.51-5.65,1.24-11.25,1.66-16.88c0.69-4.08,1.7-8.19,2.54-12.17
				c0.33-1.33,0.5-2.77,0.85-4.1c0.07-0.26,0.32-0.43,0.58-0.41c0.09,0.01,0.19,0.02,0.27,0.01c0.75-0.02,1.46-0.28,2.2-0.12
				c0.98,0.02,2.07-0.24,3.06-0.07c2.95-0.39,6.23-0.13,9.22-0.5c0.66-0.19,1.18,0.22,1.62,0.68c0.32,0.44,0.38,0.97,0.48,1.51
				c0.3,3.69-0.29,7.31-0.18,11.03c-0.1,1.23,0.03,2.44,0.1,3.64c0.03,0.49-0.18,0.92-0.1,1.4c0.06,0.44,0.15,1.07,0.09,1.54
				c-0.25,1.56,0.09,3.34-0.09,5.13c0.01,0.22-0.19,0.53-0.12,0.71c0.59,0.2,1.29,0.14,1.94,0.09c2.56-0.32,5.25,0.32,7.83-0.1
				c1.68-0.14,3.49,0.5,5.22,0.25c0.09-0.04,0.13-0.13,0.14-0.24c-0.03-0.53,0.02-1.02,0.17-1.51c0.13-2.77,0.43-5.2,0.75-7.89
				c0.16-1.73,0.03-3.65,0.64-5.33c-0.03-0.97,0.08-2.01,0.41-2.89c0.29-1.08,0.09-2.25,0.34-3.36c0.39-1.88,0.33-3.93,1.02-5.73
				C46.33,4.1,46.38,4.04,46.44,4c0.47-0.27,1.09,0.02,1.59-0.06c1.63-0.05,3.51-0.43,5.16-0.62c1.61-0.18,3.4-0.06,5.13-0.19
				c1.65-0.23,3.17-0.36,4.88-0.45c0.77-0.15,1.55-0.01,2.34-0.05C65.59,2.63,65.65,2.63,65.71,2.62z"/>
			<path d="M192.4,5.87c0.19,0.2,0.18,0.5,0.29,0.84c0.25,0.64,0.38,1.24,0.24,1.91c0,1.61-0.27,3.26-0.38,4.89
				c-0.23,1.61-0.46,3.19-0.64,4.82c-0.21,2.01-0.72,4.01-0.96,6.03c-0.07,0.72-0.12,1.39-0.04,2.12c-0.02,0.56-0.28,0.99-0.62,1.43
				c-0.22,0.25-0.43,0.48-0.8,0.44c-0.4,0-0.66,0.1-1.07-0.04c-0.91-0.09-1.83-0.08-2.7-0.31c-1.57-0.27-3.75-0.01-5.04-0.23
				c-0.27-0.03-0.52-0.05-0.81-0.05c-1.11-0.02-2.59,0.13-3.36,0.31c-0.33,0.06-0.7-0.11-1.03-0.19c-0.32-0.12-0.44-0.13-0.75-0.07
				c-0.14,0.02-0.28,0.01-0.4,0.08c-0.71,0.46-1.11,1.56-0.53,2.29c0.38,0.52,0.91,0.81,1.56,0.76c0.34-0.01,0.58,0.19,0.94,0.23
				c0.73,0.12,1.43,0.06,2.12-0.03c1.05-0.1,2.18-0.33,3.21-0.17c0.99,0.13,2.19,0.03,3.44,0.19c0.29,0.03,0.55,0.18,0.82,0.21
				c0.29,0.06,0.72-0.13,0.92,0.13c0.14,0.78,0.38,1.67,0.2,2.45c-0.08,0.38-0.14,1.08-0.13,1.63c0.06,0.71,0.12,1.14,0.04,1.83
				c-0.15,1.37-0.43,2.59-0.49,3.94c-0.14,0.72-0.42,1.46-0.54,2.18c-0.12,0.62-0.17,1.29-0.39,1.88c-0.21,0.65-1.08,0.38-1.6,0.39
				c-0.85-0.07-2.03,0.06-2.92-0.08c-1.09-0.22-2.22-0.2-3.33-0.28c-1.21-0.07-2.28-0.37-3.31-0.67c-0.48-0.15-1-0.06-1.48,0.05
				c-0.22,0.01-0.3,0.15-0.41,0.32c-0.2,0.25-0.49,0.43-0.45,0.79c-0.04,0.45,0.19,0.75,0.39,1.17c0.11,0.23,0.25,0.41,0.45,0.54
				c0.25,0.17,0.55,0.17,0.84,0.22c0.42,0.1,0.88,0.22,1.28,0.3c0.8,0.18,1.69,0.42,2.53,0.51c0.35,0.03,0.58,0.04,0.87-0.08
				c0.16-0.05,0.38-0.05,0.56,0c2.01,0.53,4.54,0.16,6.69,0.43c0.69,0.09,1.47,0.25,2.11,0.25c0.44-0.04,0.74-0.01,1.18,0.08
				c0.47,0.12,0.93-0.13,1.27,0.14c0.14,0.32,0.06,0.72,0.1,1.07c0.05,0.45-0.15,0.7-0.19,1.11c-0.1,0.89-0.25,1.95-0.14,2.82
				c0,0.73-0.28,1.73-0.19,2.39c0.09,0.43-0.12,0.87-0.21,1.28c-0.13,1.14,0,2.23-0.21,3.35c-0.46,1.93-0.52,3.96-1.24,5.81
				c-0.33,0.99-0.69,2.01-1.34,2.83c-0.05,0.11-0.08,0.19-0.16,0.21c-0.46,0.04-1.86,0.06-2.57-0.02c-0.35-0.04-0.96,0.05-1.45,0.03
				c-0.77-0.07-1.7-0.2-2.58-0.09c-0.51,0.12-0.91-0.02-1.47-0.07c-1.74,0.26-3.95-0.13-5.98-0.1c-0.8-0.05-1.42,0.26-2.13,0.2
				c-0.51-0.12-1.29-0.32-1.87-0.22c-0.89,0.09-2.09-0.12-3.1,0.04c-0.48,0.15-1.01-0.09-1.48-0.17c-1.59,0.14-3.88,0.26-5.49,0.1
				c-0.45-0.03-0.74-0.15-1.22-0.09c-0.28,0.05-0.58,0.11-0.86,0.02c-1.14-0.29-2.37-0.39-3.51-0.68c-0.36-0.12-0.85-0.1-1.13-0.38
				c-0.15-0.18-0.12-0.58-0.3-0.71c-0.05-0.04-0.13-0.07-0.18-0.11c-0.14-0.11-0.07-0.32-0.1-0.52c-0.04-0.43,0.09-0.84,0.21-1.24
				c0.27-0.85,0.42-1.71,0.61-2.56c0.14-0.8,0.06-1.73,0.23-2.57c0.31-1.49,0.21-3.24,0.5-4.82c0.8-5.35,0.43-11.18,1.55-16.36
				c0.06-0.3-0.22-0.33-0.23-0.66c-0.04-0.41,0.19-0.85,0.25-1.26c0.1-0.75-0.11-1.56,0-2.25c0.16-1.19,0.1-2.49,0.37-3.62
				c0.12-0.46,0.15-1,0.09-1.47c-0.01-0.2,0.06-0.35,0.12-0.54c0.07-0.3,0.12-0.53,0.14-0.84c0.09-1.39,0.18-2.78,0.41-4.13
				c0.16-1.87,0.38-3.73,0.66-5.57c0.3-3.27,0.66-6.62,1.41-9.81c0.41-1.45,0.57-3.34,2.05-4.1c0.39-0.25,0.98-0.24,1.35,0.07
				c0.15,0.14,0.33,0.31,0.46,0.46c0.15,0.16,0.21,0.35,0.4,0.45c0.07,0.03,0.14,0.04,0.21,0.04c1.88-0.53,3.98-0.62,5.86-1.14
				c1.33-0.27,2.74-0.2,4.06-0.48c1.29-0.17,2.69-0.35,3.98-0.19c1.15,0.14,2.64-0.24,3.67-0.01c1.11-0.01,2.2,0.04,3.31-0.01
				c0.85,0.06,1.71,0.23,2.49,0.22c1.49-0.12,2.94-0.11,4.46-0.19c0.58-0.08,1.15-0.01,1.68,0.27c0.3,0.24,0.62,0.44,0.91,0.61
				L192.4,5.87z"/>
			<path d="M153.11,5.41c-0.16,0.39-0.11,0.82-0.21,1.23c-0.22,0.96-0.1,1.9-0.35,2.84c-0.25,1.07,0.04,1.96-0.25,2.94
				c-0.39,1.73-0.81,3.86-0.98,5.55c0.07,0.42,0.03,0.92-0.15,1.26c-0.1,0.21-0.21,0.35-0.24,0.46c-0.03,0.17,0,0.52-0.04,0.68
				c-0.15,0.91-0.23,1.84-0.44,2.74c-0.06,0.41-0.16,0.87-0.57,1.06c-0.23,0.12-0.61,0.13-0.9,0.24c-0.52,0.19-1.04,0.46-1.57,0.62
				c-0.96,0.29-2.09,0.19-3.07,0.42c-0.28,0.06-0.51,0.3-0.77,0.32c-0.24,0.01-0.42,0.12-0.57,0.29c-0.66,0.61-1.41,0.92-1.91,1.78
				c-0.17,0.26-0.19,0.55-0.32,0.82c-0.32,0.39-0.43,0.83-0.39,1.36c0,0.12-0.01,0.23-0.12,0.29c-0.35,0.15-0.7,0.35-0.81,0.76
				c-0.09,0.31-0.15,0.68,0.01,0.97c0.46,1.15,1.28,2.15,2,3.16c1.21,1.71,2.37,3.36,3.47,5.05c0.68,1.05,1.42,2.41,2.12,3.39
				c0.31,0.52,0.85,0.71,1.04,1.28c0.19,0.62,0.81,1.01,1.09,1.56c0.05,0.27,0.03,0.85,0,1.19c-0.31,2.67-0.75,6.91-0.39,9.63
				c-0.03,0.85-0.28,1.73-0.33,2.56c-0.12,1.44-0.29,4.04-0.14,4.9c0.04,0.5-0.29,1.05-0.28,1.56c-0.02,0.36-0.13,0.74-0.27,1.03
				c-1.68,1.48-3.54,2.99-5.25,4.35c-0.45,0.33-0.87,0.84-1.34,1.13c-0.99,0.26-1.99,0.31-3.05,0.33c-1.11,0.06-2.35,0.12-3.48,0.28
				c-0.7,0.11-1.74-0.05-2.58-0.05c-0.29-0.01-0.55,0.02-0.82,0.07c-0.78,0.12-1.69-0.15-2.53-0.01c-1.2,0.12-2.49-0.11-3.68,0.17
				c-0.82,0.16-1.69-0.08-2.63-0.04c-0.79,0.12-1.7,0.22-2.54,0.11c-1.18-0.16-2.76-0.08-4.23-0.16c-1.24-0.1-2.49-0.22-3.72-0.33
				c-0.16-0.02-0.29-0.05-0.42-0.1c-0.17-0.06-0.34-0.12-0.4-0.3c-0.11-0.7,0.14-1.41,0.3-2.09c0.31-1.09,0.39-2.34,0.63-3.49
				c0.43-1.67,0.36-3.63,1.02-5.34c0-0.01,0.01-0.15-0.01-0.24c-0.03-0.2-0.06-0.26-0.07-0.43c-0.03-0.29,0.13-0.51,0.2-0.78
				c0.22-0.61-0.06-1.16,0.14-1.71c0.37-1.41,0.36-2.98,0.59-4.44c0.04-0.31,0.14-0.6,0.17-0.9c0.03-0.31-0.04-0.76,0.09-1.06
				c0.14-0.38,0.68-0.33,0.98-0.48c0.56-0.24,1.41-0.13,2.05-0.12c0.3,0,0.64,0.28,0.93,0.31c0.48,0.05,1.06-0.07,1.56,0
				c0.81,0.12,1.87,0.37,2.8,0.42c0.79,0.04,1.72-0.1,2.53-0.03c0.87,0.17,1.86,0.09,2.83-0.17c0.24-0.01,0.47,0.17,0.68,0.17
				c0.43-0.02,0.84-0.26,1.21-0.51c0.67-0.46,0.57-1.38,0.8-2.08c0.08-0.32,0.39-0.5,0.58-0.75c0.43-0.58,0.03-1.24-0.15-1.83
				c-0.29-1.02-0.99-1.87-1.51-2.78c-0.61-1.2-1.36-2.18-1.9-3.33c-0.98-1.71-2.5-3.7-3.57-5.22c-1.07-1.46-1.66-3.2-2.57-4.78
				c-0.6-1.18-1.22-2.41-2.51-2.86c-0.08-0.05-0.07-0.06-0.1-0.09c-0.01-0.02-0.02-0.06-0.03-0.07c-0.04-0.48,0.06-0.98,0.14-1.46
				c0.2-0.84,0.2-1.72,0.4-2.55c0.16-0.67,0.15-1.39,0.31-2.13c0.29-1.57,0.73-3.38,0.69-5.09c0-0.34,0.15-0.41,0.4-0.68
				c0.3-0.29,0.55-0.55,0.87-0.79c0.68-0.52,1.43-1.28,2.07-1.64c0.74-0.5,1.56-1.29,2.2-1.81c0.54-0.46,1.07-1.07,1.6-1.51
				c0.54-0.36,1.11-0.92,1.69-1.44c0.94-0.62,1.85-1.49,2.86-2.38c0.21-0.18,0.45-0.28,0.65-0.47c0.14-0.14,0.17-0.32,0.3-0.36
				c0.12-0.06,0.37-0.01,0.55-0.08c0.16-0.06,0.3-0.17,0.45-0.23c0.76-0.19,1.82-0.22,2.68-0.28c1.22-0.07,3.01,0.13,4.11,0
				c0.18-0.03,0.42,0.08,0.58,0.07c0.14-0.03,0.38-0.08,0.55-0.12c0.16-0.05,0.26-0.26,0.5-0.34c0.15-0.06,0.32-0.06,0.47-0.01
				c0.2,0.11,0.3,0.26,0.47,0.25c0.57-0.03,1.43-0.17,1.9-0.25c0.56-0.11,1.2-0.25,1.72-0.35c0.18-0.07,0.32-0.24,0.53-0.24
				c0.29,0,0.59,0.15,0.86,0.24c0.43,0.14,0.99,0.04,1.49,0.15c0.23,0.06,0.37,0.28,0.61,0.3c0.57,0,1.47-0.11,2.12,0.14
				c0.19,0.03,0.45-0.03,0.55,0.07l0.02,0.03C153.16,5.23,153.14,5.32,153.11,5.41z"/>
			<path d="M232.62,4.3c0,0.14,0.01,0.58-0.01,0.9c-0.05,1.03-0.06,2.34-0.16,3.45c-0.01,1.18,0.11,2.51-0.16,3.62
				c-0.09,0.36,0.03,0.75,0.01,1.07c-0.06,0.44-0.15,0.89-0.17,1.36c-0.07,1.81,0.03,3.71-0.2,5.52c-0.05,1.7-0.28,3.4-0.61,5.1
				c-0.01,0.07-0.09,0.15-0.23,0.16c-0.24,0.01-0.35,0.11-0.59,0.19c-1.19,0.15-2.41,0.2-3.63,0.18c-1.17,0.14-2.42,0.31-3.69,0.08
				c-0.44-0.03-0.69,0.18-1.14,0.12c-0.53-0.09-0.75,0.37-1.12,0.61c-0.57,0.15-1.07,0.61-1.05,1.25c-0.28,0.95,0,2.06-0.1,3.03
				c-0.06,1.12-0.05,2.3,0.09,3.41c0.04,1.04-0.12,2.17-0.01,3.2c-0.17,0.51-0.02,1.12-0.12,1.63c-0.27,1.1-0.12,2.28-0.32,3.39
				c-0.31,1.33-0.34,2.76-0.61,4.11c-0.18,0.82-0.48,1.78-0.58,2.6c-0.01,0.87,0.06,1.73-0.12,2.6c-0.27,1.64-0.28,3.62-0.49,5.11
				c-0.17,2.73-0.57,5.33-1.04,8.08c-0.07,0.38-0.03,0.75-0.24,1.09c-0.16,0.22-0.13,0.49-0.17,0.74c-0.05,0.22-0.3,0.26-0.5,0.26
				c-0.38,0.01-0.68,0.02-1.03,0c-1.53,0.4-3.35,0.13-4.85,0.4c-0.98,0.14-2.09,0.39-3.07,0.28c-1.76,0.02-3.47,0.49-5.21,0.36
				c-0.42,0.02-0.34-0.18-0.4-0.5c-0.73-3.12-0.47-6.36-0.01-9.44c0.05-0.25,0.12-0.52,0.15-0.77c0.04-0.28-0.12-0.59-0.09-0.89
				c0.02-0.24,0.2-0.42,0.24-0.66c0.07-0.45-0.11-1.04,0.02-1.46c0.08-0.32,0.3-0.91,0.35-1.28c0.03-0.29,0-0.45,0.03-0.75
				c0.42-2.74,0.99-5.48,1.42-8.23c0.13-0.58,0.01-1.27,0.1-1.79c0.05-0.25,0.27-0.49,0.32-0.77c0.11-0.56,0.01-1.15,0.1-1.72
				c0.09-0.68,0.47-1.52,0.53-2.31c-0.11-1.18,0.07-2.28,0.24-3.43c0.21-1.82,0.39-3.6,0.81-5.33c0.09-0.23-0.03-0.55,0-0.72
				c0.02-0.08,0.04-0.16,0.05-0.24c0-0.72-0.71-1.25-1.21-1.72c-0.14-0.12-0.28-0.11-0.46-0.15c-0.27-0.09-0.56-0.14-0.85-0.14
				c-0.61-0.01-1.48-0.19-2.16-0.19c-0.69,0.05-1.24-0.14-1.91,0.05c-1.03-0.1-2.09-0.05-3.12-0.12c-0.24-0.02-0.55,0.22-0.65-0.08
				c-0.05-0.6-0.05-1.2-0.01-1.76c0.06-0.93,0.12-2.01,0.32-2.93c0.13-0.92,0.14-2.08,0.23-3.06c0.31-1.59,0.39-3.26,0.52-4.96
				c0.29-1.98,0.31-4.52,0.65-6.67c0.07-0.54-0.1-1.72,0.76-1.44c10.3,0.51,20.2-0.45,30-0.39c1.44-0.02,2.79-0.22,4.15-0.29
				c0.29-0.02,0.45,0.13,0.72,0.09C232.5,4.15,232.62,4.16,232.62,4.3z"/>
		</g>
	</g>
	<g id="Av191A_00000061435351666927245360000012895399157556144525_">
		<g>
			<path d="M159.1,81.36c-0.24-0.28-0.62,0.11-0.83,0.27c-0.39,0.31-0.78,0.64-1.16,0.97c-0.25,0.2-0.4,0.51-0.62,0.73
				c-0.07,0.09-0.19,0.1-0.26,0.21c-0.09,0.2-0.22,0.43-0.36,0.59c-0.03,0.05-0.12,0.17-0.16,0.05c-0.05-0.19-0.11-0.43-0.16-0.63
				c-0.05-0.44,0.06-0.95-0.11-1.36c-0.08-0.2-0.22-0.48-0.46-0.45c-0.32,0.06-0.48,0.41-0.66,0.66c-0.57,0.88-1.19,1.79-1.84,2.65
				c-0.44,0.58-0.95,1.1-1.48,1.59c-0.24,0.2-0.48,0.54-0.79,0.68c-0.31,0.14-0.71,0.25-1.06,0.14c-0.13-0.03-0.29-0.06-0.37-0.19
				c-0.15-0.3,0.28-0.47,0.39-0.71c0.2-0.39,0.55-0.72,0.7-1.12c0.05-0.14,0.16-0.27,0.21-0.4c0.16-0.55,0.21-1.08-0.18-1.57
				c-0.22-0.21-0.69-0.25-0.95-0.17c-0.4,0.22-0.74,0.54-0.97,0.94c-0.09,0.16-0.2,0.34-0.25,0.51c-0.03,0.22-0.07,0.45-0.12,0.67
				c-0.02,0.12-0.05,0.24-0.03,0.37c0.01,0.06,0.03,0.12,0.04,0.17c0.03,0.12-0.02,0.17-0.01,0.3c0.04,0.27,0.17,0.61,0.27,0.87
				c0.03,0.14-0.14,0.17-0.24,0.27c-1.07,1.03-2.06,2.09-3.52,2.64c-0.39,0.22-0.69,0.26-0.91-0.17c-0.14-0.28-0.1-0.63-0.11-0.94
				c0.01-0.18,0.08-0.31,0.1-0.51c0.05-1.28,0.11-2.48,0.22-3.72c0.18-1.57,0.22-3.15,0.33-4.73c0.02-0.2,0.11-0.33,0.11-0.53
				c0-0.19-0.01-0.48-0.02-0.68c-0.01-0.13-0.01-0.2-0.09-0.23c-0.1-0.03-0.36-0.01-0.44,0.11c-0.08,0.11-0.08,0.25-0.11,0.38
				c-0.19,0.66-0.5,1.44-0.81,2.06c-0.18,0.35-0.28,0.73-0.45,1.05c-0.07,0.11-0.12,0.23-0.19,0.28c-0.2,0.09-0.46,0.02-0.66,0.13
				c-0.71,0.24-1.36,0.7-1.91,1.19c-0.29,0.24-0.55,0.63-0.75,0.93c-0.09,0.12-0.08,0.26-0.13,0.4c-0.05,0.13-0.13,0.24-0.14,0.38
				c-0.01,0.15,0,0.32,0.01,0.47c0.02,0.38,0.44,0.57,0.78,0.6c0.22-0.02,0.45-0.1,0.65-0.21c0.25-0.21,0.47-0.44,0.73-0.65
				c0.86-0.69,1.25-1.73,1.82-2.61c0.11-0.13,0.3-0.01,0.42,0.07c0.37,0.21,0.43,0.27,0.41,0.69c-0.05,0.83-0.2,1.71-0.25,2.53
				c-0.04,0.61-0.05,1.33-0.1,1.86c-0.08,0.58,0.05,1.19,0.07,1.76c0.01,0.4,0.39,0.63,0.73,0.75l0.02,0
				c0.18,0.06,0.37-0.02,0.54-0.07c0.64-0.09,1.18-0.45,1.74-0.78c0.86-0.59,1.59-1.3,2.37-2.04c0.05-0.04,0.09-0.08,0.14-0.1
				c0.25-0.11,0.39,0.18,0.62,0.24c0.27,0.04,0.49,0.14,0.77,0.14c0.12,0,0.22-0.05,0.33-0.08c0.14-0.04,0.29-0.07,0.41-0.17
				c0.15-0.13,0.33-0.21,0.51-0.29c0.21-0.1,0.31-0.17,0.48-0.36c0.23-0.23,0.57-0.6,0.77-0.83c0.12-0.13,0.18-0.23,0.28-0.37
				c0.21-0.3,0.63-0.7,0.89-1.06c0.35-0.57,0.78-1.2,1.24-1.81c0.09-0.1,0.25-0.45,0.4-0.41c0.05,0.04,0.05,0.14,0.06,0.2
				c0.04,0.15,0.08,0.21,0.08,0.37c0.03,0.52,0.07,1.64,0.11,1.99c0.06,0.15,0.28,0.27,0.46,0.24c0.45-0.12,0.45-0.74,0.68-1.08
				c0.58-0.99,1.64-1.88,2.5-2.59C158.93,81.74,159.17,81.55,159.1,81.36z M141.41,83.06c-0.1,0.29-0.19,0.64-0.4,0.86
				c-0.35,0.44-0.57,1.19-1.12,1.41l-0.01,0.01c-0.15,0.16-0.34,0.32-0.53,0.45c-0.26,0.18-0.69,0.26-0.72-0.14
				c-0.02-0.17,0.07-0.31,0.14-0.45c0.14-0.34,0.47-0.82,0.78-1.14c0.4-0.4,0.96-0.7,1.49-0.95c0.09-0.04,0.2-0.08,0.29-0.11
				C141.41,82.97,141.43,82.97,141.41,83.06z M143,82.79L143,82.79c-0.14,0.01-0.24-0.2-0.37-0.24c-0.19-0.07-0.29-0.15-0.16-0.34
				c0.14-0.21,0.31-0.42,0.32-0.66c0.06-0.15,0.2-0.37,0.29-0.54c0.03-0.06,0.06-0.13,0.07-0.03c0.02,0.24,0.04,0.47,0,0.69
				c-0.04,0.3-0.15,0.61-0.12,0.91C143.01,82.63,143.04,82.73,143,82.79z M148.34,86.64L148.34,86.64
				c-0.23-0.28-0.18-0.73-0.21-1.09c-0.01-0.16,0.07-0.26,0.09-0.4c0.01-0.09,0-0.19,0.03-0.28c0.06-0.19,0.24-0.37,0.34-0.53
				c0.06-0.08,0.07-0.2,0.14-0.26c0.2-0.1,0.37-0.33,0.59-0.34c0.27-0.01,0.36,0.31,0.37,0.55c0.01,0.14-0.06,0.25-0.11,0.39
				c-0.18,0.63-0.5,1.21-0.93,1.7C148.56,86.47,148.46,86.63,148.34,86.64z"/>
			<path d="M224.84,82.34c-0.22-1.06-0.28-2.24-0.5-3.24c-0.07-0.94-0.12-1.68-0.26-2.56c-0.11-2.04,0.13-3.94-0.06-5.99
				c-0.14-0.8,0.91-3.65,0.47-4.56c-0.11-0.24-0.44-0.26-0.59-0.04c-0.17,0.26-0.15,0.69-0.19,0.99c-0.06,0.6-0.2,1.24-0.16,1.85
				c0.01,0.12,0.01,0.24,0.01,0.36c-0.19,2.69-0.92,5.31-1.7,7.93c-0.12,0.55-0.92,2.49-1.63,1.76c-0.04-0.04-0.05-0.1-0.04-0.16
				c0.14-0.55,0.52-1.11,0.69-1.66c0.06-0.38,0.16-0.91-0.06-1.25c-0.36-0.48-0.93,0.09-1.04,0.5c-0.17,0.71-0.33,1.42-0.27,2.15
				c0.01,0.11-0.01,0.21-0.05,0.31c-0.32,0.68-1.16,2.24-1.85,2.05c-0.61-0.5-0.51-1.48-0.81-2.17c-0.83-2.01-1.81,0.06-2.28,1.07
				c-0.12,0.22-0.28,0.51-0.45,0.71c-0.05,0.06-0.15,0.03-0.16-0.05c-0.05-0.32,0-0.65,0.01-0.94c0.03-0.62,0.12-2.78-0.64-2.88
				c-0.3-0.03-0.53,0.3-0.6,0.56c-0.2,0.68-0.54,1.28-0.82,1.94c-0.08,0.14-0.23,1.04-0.41,0.82c-0.08-0.11-0.14-0.4-0.12-0.75
				c0.04-0.78-0.14-2.86-1.36-1.93c-0.22,0.11-0.27,0.34-0.4,0.54c-0.51,0.7-0.81,1.65-1.3,2.36c-0.06,0.16-0.23,0.73-0.22,0.2
				c0-0.23-0.09-0.44-0.1-0.64c-0.09-0.55-0.06-1.29-0.63-1.58c-0.96-0.14-1.2,1.02-1.69,1.6c-0.05,0.06-0.14,0.05-0.17-0.02
				c-0.13-0.32-0.17-0.86-0.34-1.11c-0.17-0.48-0.73-0.6-1.14-0.34c-0.53,0.45-0.95,1.3-1.29,1.94c-0.3,0.5-0.6,1.04-0.58,0.04
				c0.08-0.53-0.04-0.95-0.12-1.42c-0.02-0.61-0.56-0.54-0.9-0.18c-0.64,0.76-1.14,1.66-1.92,2.2c-0.23,0.13-0.1-0.28-0.08-0.4
				c0.07-0.53,0.13-0.99,0.21-1.57c0.22-1.33,0.01-2.07-1.46-1.31c-0.65,0.31-1.37,0.28-2.04,0.49c-0.23-0.03-0.03-0.36-0.02-0.51
				c0.23-1.57,0.77-4.02,0.81-4.35c0.04-0.33,0.04-0.62-0.3-0.53c-0.2,0.06-0.17,0.24-0.23,0.71c-0.05,0.47-0.62,2.93-0.9,4.66
				c0,0.15-0.09,0.21-0.23,0.22c-0.41-0.02-1.7,0.55-2.04,0.33c-0.04-0.02-0.05-0.06-0.04-0.1c0.26-1.25,0.33-2.57,0.62-3.81
				c0.04-0.15,0.16-0.28,0.16-0.4c0-0.09-0.11-0.16-0.22-0.18c-0.27-0.04-0.28,0.23-0.37,0.42c-0.3,1.04-0.4,2.31-0.58,3.41
				c-0.07,0.27,0,0.75-0.3,0.86c-0.26,0.08-0.9-0.09-1.19,0.11c-0.1,0.07-0.11,0.22-0.02,0.3c0.25,0.23,0.85,0.03,1.16,0.08
				c0.21,0.08-0.05,0.39-0.01,0.56c-0.14,1.06-0.23,2.75-0.38,3.27c-0.15,0.52,0.1,0.8,0.36,0.44c0.26-0.36,0.3-2.68,0.62-3.99
				c0.02-0.07,0.02-0.15,0.03-0.23c0.01-0.09,0.09-0.17,0.18-0.19c0.24-0.05,0.53,0,0.75-0.08c0.33-0.07,0.71-0.12,1.02-0.24
				c0.11-0.05,0.32-0.1,0.3,0.09c-0.11,0.48-0.18,1.02-0.29,1.5c-0.13,0.57-0.26,1.26-0.38,1.79c-0.12,0.51,0.31,0.62,0.41,0.22
				c0.24-0.97,0.74-3.2,0.79-3.56s0.45-0.22,0.7-0.31c0.74-0.16,1.67-0.38,2.4-0.66c0.58,0.14-0.21,2.19-0.12,2.71
				c0.03,0.35-0.11,0.89,0.39,0.89c0.44,0.1,0.71-0.33,1.06-0.55c0.21-0.15,0.33-0.33,0.46-0.54c0.31-0.32,0.82-0.97,1.02-1.23
				c0.03-0.05,0.11-0.03,0.12,0.03c0.12,0.79-0.22,2.82,0.9,2.26c0.8-0.72,0.95-1.95,1.79-2.65c0.68-0.52,0.59,1.08,0.67,1.41
				c0.1,0.57,0.66,0.75,0.97,0.2c0.34-0.51,0.67-1.37,1.21-1.71c0.46,0.06,0.35,1.79,0.46,2.17c0.7,1.8,1.66-1.45,2.01-2.07
				c0.6-0.9,1.05-2.1,1.27-0.2c0.06,0.49-0.34,2.68,0.59,2.58c0.38-0.12,0.38-0.62,0.57-0.91c0.37-0.79,0.72-1.6,1-2.38
				c0.06-0.14,0.18-0.5,0.3-0.36c0.11,0.14,0.18,2.76,0.14,3.15c-0.04,0.49,0.12,1.01,0.63,0.7c0.77-0.61,1.08-1.74,1.6-2.56
				c0.22-0.38,0.33-0.56,0.58-0.06c0.33,0.81,0.42,1.74,0.88,2.47c1.17,0.82,2.14-0.89,2.63-1.78c0.16-0.15,0.31,0.25,0.66,0.21
				c1.85-0.27,2.49-4.05,2.87-5.5c0.06-0.24,0.21-0.27,0.18,0.03c0.12,2.91,0.31,5.72,0.93,8.66c0.05,0.29,0.25,0.54,0.29,0.83
				c0.02,0.1,0.08,0.17,0.17,0.18C225.49,83.75,224.81,82.74,224.84,82.34z M220.12,76.93c0.04-0.17,0.12-0.28,0.18-0.36
				c0.01-0.01,0.01-0.02,0.03-0.02c0.02,0,0.04,0,0.05,0.02c0.01,0.01,0.01,0.03,0.02,0.05c0.01,0.1-0.01,0.28-0.09,0.44
				c-0.07,0.16-0.13,0.46-0.2,0.44C220.04,77.48,220.08,77.1,220.12,76.93z"/>
			<path d="M127,87.94c0.05-0.04,0.32-0.4,0.5-0.92c0.18-0.52,0.3-0.7,0.48-1.03c0.06-0.13,0.3-0.17,0.38-0.06
				c0.08,0.14,0.03,0.33-0.01,0.47c-0.1,0.31-0.32,0.8-0.5,1.16c-0.53,1.06-1.24,2.3-2.08,3.14c-0.53,0.42-1.1,0.28-1.13-0.45
				c-0.06-0.68-0.09-1.55-0.05-2.26c0.1-1.04,0.3-2.09,0.44-3.12c0.22-1.75,0.54-3.52,0.96-5.31c0.03-0.14,0.08-0.26,0.14-0.39
				c0.08-0.17,0.14-0.35,0.33-0.4c0.11-0.04,0.27-0.04,0.26,0.09c-0.06,0.43-0.25,0.85-0.36,1.28c-0.26,1.13-0.44,2.3-0.65,3.42
				c-0.13,0.83-0.14,1.74-0.33,2.56c-0.24,0.68,0.24,0.26,0.29,0.76c0,0.14-0.14,0.25-0.2,0.4c-0.04,0.09-0.05,0.19-0.06,0.28
				c-0.04,0.46-0.12,0.92-0.2,1.35c-0.04,0.16,0.01,0.33-0.01,0.47c-0.02,0.12-0.08,0.37,0.1,0.38c0.11-0.01,0.21-0.18,0.26-0.28
				c0.4-0.73,0.7-1.34,0.96-2.06c0.36-1.06,0.57-2.2,0.79-3.3c0.45-2.57,0.98-5.16,1.28-7.75c0.05-0.11,0.11-0.24,0.23-0.25
				c0.12,0,0.25,0.12,0.28,0.24c-0.58,3.88-0.97,7.8-2.16,11.55C126.93,87.93,126.94,87.98,127,87.94z"/>
			<path d="M170.68,80.36c0.31-0.27,0.45-0.61,0.61-0.98c0.17-0.41,0.36-0.77,0.41-1.23c0.01-0.18,0.04-0.39,0.03-0.57
				c-0.01-0.14-0.06-0.22-0.09-0.36c-0.03-0.12-0.01-0.26-0.04-0.38c-0.04-0.19-0.19-0.35-0.32-0.54c-0.11-0.14-0.23-0.29-0.39-0.39
				c-0.41-0.22-0.93-0.32-1.38-0.18c-0.2,0.09-0.39,0.27-0.6,0.39c-0.04,0.02-0.08,0.04-0.11,0.06c-0.17,0.07-0.24,0.2-0.34,0.35
				c-0.74,0.77-0.93,2.01-1.09,3c-0.09,0.67-0.17,1.49-0.07,1.98c0.03,0.15,0.05,0.26,0.04,0.42c0.01,0.45-0.08,0.88,0,1.26
				c0.05,0.23,0.12,0.5,0.18,0.73c0.04,0.16,0.02,0.31,0.11,0.44c0.11,0.18,0.37,0.21,0.47,0c0.19-0.54,0.19-1.12,0.24-1.69
				c0.19-1.54,0.34-3.07,0.54-4.61c0.04-0.22,0.15-0.46,0.15-0.68c0.01-0.16-0.03-0.37-0.01-0.52c0.06-0.3,0.4-0.52,0.67-0.6
				c0.14-0.04,0.28-0.1,0.43-0.08c0.17,0.03,0.34,0.1,0.5,0.19c0.1,0.06,0.17,0.15,0.23,0.24c0.08,0.11,0.2,0.22,0.25,0.36
				c0.08,0.26,0.11,0.52,0.11,0.78c-0.01,0.14-0.08,0.3-0.1,0.45c-0.11,0.5-0.31,1.01-0.57,1.47c-0.43,0.55-1.07,0.82-0.47,1.58
				c0.07,0.08,0.11,0.11,0.2,0.16c0.3,0.19,0.54,0.51,0.66,0.84c0.05,0.16,0.03,0.33,0.01,0.48c0.01,0.25-0.11,0.5-0.29,0.69
				c-0.33,0.48-0.81,1.02-1.34,1.3c-0.24,0.14-0.55,0.17-0.76,0.34l-0.01,0.01c-0.11,0.1-0.05,0.3,0.08,0.37
				c0.09,0.04,0.2,0.02,0.3-0.01c0.47-0.08,0.91-0.36,1.29-0.64c0.32-0.26,0.78-0.84,1.03-1.29c0.08-0.13,0.13-0.26,0.16-0.41
				c0.04-0.17,0.1-0.32,0.09-0.57c0-0.37-0.13-0.68-0.33-1.01c-0.08-0.14-0.17-0.25-0.33-0.35
				C170.43,80.95,170.24,80.74,170.68,80.36z M168.42,78.33c-0.12,0.89-0.27,1.9-0.38,2.69c-0.02,0.28-0.07,0.55-0.1,0.82
				c-0.04,0.39-0.24,0.23-0.17-0.06c0.05-0.22,0.07-0.47,0.04-0.71c-0.15-0.96,0.14-1.86,0.34-2.81c0.03-0.19,0.11-0.38,0.21-0.54
				c0.03-0.04,0.06-0.12,0.1-0.05C168.49,77.73,168.43,78.14,168.42,78.33z"/>
			<path d="M176.52,79.74c0.1,0.12-0.02,0.42-0.21,0.42c-0.23,0.03-0.48,0.04-0.67,0.2c-0.08,0.07-0.17,0.14-0.26,0.21
				c-0.19,0.2-0.76,0.52-0.41,0.76c0.09,0.05,0.19,0.11,0.23,0.21c0.07,0.17,0.17,0.4,0.23,0.57c0.06,0.19,0.03,0.4,0.13,0.58
				c0.06,0.1,0.19,0.14,0.3,0.09c0.18-0.08,0.35-0.15,0.5-0.28c0.47-0.42,1.28-1.62,1.7-1.85c0.12-0.03,0.25-0.09,0.38-0.12
				c0.24-0.05,0.56,0.14,0.71,0.35c0.19,0.22,0.22,0.52,0.28,0.78c0.02,0.25,0.21,0.48,0.26,0.73c0.02,0.13,0.03,0.3,0.09,0.26
				c0.15-0.15,0.22-0.4,0.31-0.59c0.32-0.68,0.68-1.49,1.31-1.96c0.14-0.12,0.34-0.35,0.5-0.14c0.16,0.3-0.21,0.56-0.39,0.77
				c-0.7,0.73-1.02,1.78-1.4,2.71c-0.1,0.21-0.12,0.5-0.36,0.59c-0.39,0.1-0.39-0.34-0.43-0.6c-0.16-0.78-0.32-1.56-0.67-2.27
				c-0.05-0.12-0.13-0.11-0.24-0.04c-0.38,0.21-0.67,0.72-0.93,0.97c-0.45,0.44-0.89,0.88-1.44,1.21c-0.3,0.2-0.6,0.05-0.84-0.18
				c-0.14-0.13-0.19-0.33-0.26-0.49c-0.05-0.11-0.09-0.23-0.1-0.36c-0.02-0.14-0.1-0.14-0.18-0.05c-0.15,0.15-0.16,0.37-0.31,0.53
				c-0.19,0.18-0.27,0.43-0.51,0.56c-0.13,0.09-0.31,0.14-0.44,0.02c-0.25-0.25-0.17-0.73,0.01-1.02c0.36-0.88,1.13-1.84,1.9-2.32
				c0.17-0.1,0.4-0.26,0.57-0.32c0.11-0.03,0.21,0.01,0.36,0.02C176.34,79.71,176.44,79.69,176.52,79.74L176.52,79.74z"/>
			<path d="M135.3,86.59c-0.24,0.2-0.41,0.51-0.62,0.75c-0.24,0.36-0.46,0.67-0.78,0.95c-0.24,0.33-0.72,0.55-1.02,0.21
				c-0.14-0.25-0.32-0.5-0.36-0.79c-0.09-0.57-0.34-1.08-0.51-1.6c-0.06-0.14-0.11-0.37-0.29-0.39c-0.21,0.05-0.35,0.31-0.49,0.46
				c-0.51,0.66-0.83,1.54-1.26,2.25c-0.16,0.12-0.42-0.06-0.4-0.25c0.01-0.18,0.11-0.35,0.16-0.53c0.27-0.66,0.54-1.29,0.71-1.99
				c0.06-0.25,0.18-0.46,0.31-0.69c0.09-0.19,0.29-0.33,0.46-0.14c0.14,0.14-0.12,0.47-0.06,0.51c0.03,0.03,0.16-0.05,0.22-0.08
				c0.14-0.08,0.33-0.1,0.48-0.08c0.22,0.03,0.4,0.25,0.53,0.4c0.13,0.2,0.16,0.45,0.24,0.68c0.14,0.43,0.3,0.91,0.45,1.35
				c0.07,0.26,0.17,0.62,0.47,0.3c0.56-0.64,1.1-1.32,1.44-2.06c0.44-0.75,1.03-1.46,1.42-2.24c0.24-0.45,0.47-0.96,0.81-1.34
				c0.11-0.11,0.33-0.34,0.46-0.26c0.08,0.05,0.13,0.21,0.09,0.33c-0.16,0.35-0.47,0.7-0.68,1.05c-0.46,0.78-0.92,1.59-1.36,2.38
				C135.62,86,135.48,86.38,135.3,86.59L135.3,86.59z"/>
			<path d="M199.83,73.25c-0.03,0.02-0.12,0.04-0.16,0.05c-0.07,0.02-0.16,0.06-0.22,0.02c-0.04-0.02-0.1-0.04-0.14-0.04
				c-0.03,0-0.08,0.01-0.09-0.04c0.03-0.18-0.24-0.33-0.23-0.5c0.02-0.06,0.1-0.13,0.15-0.18c0.06-0.06,0.09-0.09,0.15-0.1
				c0.24-0.03,0.46,0.27,0.6,0.47c0.05,0.07-0.04,0.14-0.04,0.21C199.84,73.17,199.85,73.21,199.83,73.25L199.83,73.25z"/>
		</g>
	</g>
</g>
</svg>
